<mxfile host="app.diagrams.net" modified="2023-11-29T07:23:11.523Z" agent="Mozilla/5.0 (Windows NT 10.0; Win64; x64) AppleWebKit/537.36 (KHTML, like Gecko) Chrome/119.0.0.0 Safari/537.36" etag="g6nNKOKjsRFfgxbEbzyN" version="22.1.4" type="device">
  <diagram name="Page-1" id="lFznVpnwsii35QZp6Sto">
    <mxGraphModel dx="1575" dy="1216" grid="1" gridSize="10" guides="1" tooltips="1" connect="1" arrows="1" fold="1" page="0" pageScale="1" pageWidth="850" pageHeight="1100" math="0" shadow="0">
      <root>
        <mxCell id="0" />
        <mxCell id="1" parent="0" />
        <mxCell id="8pidxWECpLZkylS-_Fdc-15" value="" style="rounded=0;whiteSpace=wrap;html=1;fontSize=16;" vertex="1" parent="1">
          <mxGeometry x="-90" y="-80" width="500" height="620" as="geometry" />
        </mxCell>
        <mxCell id="8pidxWECpLZkylS-_Fdc-16" value="" style="endArrow=none;html=1;rounded=0;fontSize=12;startSize=8;endSize=8;curved=1;exitX=0.5;exitY=1;exitDx=0;exitDy=0;entryX=0.5;entryY=0;entryDx=0;entryDy=0;" edge="1" parent="1" source="8pidxWECpLZkylS-_Fdc-15" target="8pidxWECpLZkylS-_Fdc-15">
          <mxGeometry width="50" height="50" relative="1" as="geometry">
            <mxPoint x="100" y="190" as="sourcePoint" />
            <mxPoint x="150" y="140" as="targetPoint" />
          </mxGeometry>
        </mxCell>
        <mxCell id="8pidxWECpLZkylS-_Fdc-17" value="" style="endArrow=none;html=1;rounded=0;fontSize=12;startSize=8;endSize=8;curved=1;exitX=0.001;exitY=0.07;exitDx=0;exitDy=0;exitPerimeter=0;entryX=1.001;entryY=0.071;entryDx=0;entryDy=0;entryPerimeter=0;" edge="1" parent="1" source="8pidxWECpLZkylS-_Fdc-15" target="8pidxWECpLZkylS-_Fdc-15">
          <mxGeometry width="50" height="50" relative="1" as="geometry">
            <mxPoint x="130" as="sourcePoint" />
            <mxPoint x="180" y="-50" as="targetPoint" />
          </mxGeometry>
        </mxCell>
        <mxCell id="8pidxWECpLZkylS-_Fdc-18" value="" style="ellipse;html=1;shape=startState;fillColor=#000000;strokeColor=#ff0000;fontSize=16;" vertex="1" parent="1">
          <mxGeometry x="-20" y="-30" width="30" height="30" as="geometry" />
        </mxCell>
        <mxCell id="8pidxWECpLZkylS-_Fdc-19" value="" style="edgeStyle=orthogonalEdgeStyle;html=1;verticalAlign=bottom;endArrow=open;endSize=8;strokeColor=#ff0000;rounded=0;fontSize=12;curved=1;" edge="1" parent="1">
          <mxGeometry relative="1" as="geometry">
            <mxPoint x="-5.26" y="30" as="targetPoint" />
            <mxPoint x="-5.26" as="sourcePoint" />
          </mxGeometry>
        </mxCell>
        <mxCell id="8pidxWECpLZkylS-_Fdc-20" value="&lt;font style=&quot;font-size: 20px;&quot;&gt;&lt;b&gt;Customer&lt;/b&gt;&lt;/font&gt;" style="text;html=1;align=center;verticalAlign=middle;resizable=0;points=[];autosize=1;strokeColor=none;fillColor=none;fontSize=16;" vertex="1" parent="1">
          <mxGeometry x="-50" y="-80" width="120" height="40" as="geometry" />
        </mxCell>
        <mxCell id="8pidxWECpLZkylS-_Fdc-21" value="&lt;b&gt;&lt;font style=&quot;font-size: 20px;&quot;&gt;System&lt;/font&gt;&lt;/b&gt;" style="text;html=1;align=center;verticalAlign=middle;resizable=0;points=[];autosize=1;strokeColor=none;fillColor=none;fontSize=16;" vertex="1" parent="1">
          <mxGeometry x="240" y="-80" width="90" height="40" as="geometry" />
        </mxCell>
        <mxCell id="8pidxWECpLZkylS-_Fdc-23" value="Register" style="rounded=1;whiteSpace=wrap;html=1;fontSize=16;" vertex="1" parent="1">
          <mxGeometry x="-45" y="30" width="80" height="20" as="geometry" />
        </mxCell>
        <mxCell id="8pidxWECpLZkylS-_Fdc-24" value="" style="endArrow=classic;html=1;rounded=0;fontSize=12;startSize=8;endSize=8;curved=1;exitX=1;exitY=0.5;exitDx=0;exitDy=0;entryX=0;entryY=0.5;entryDx=0;entryDy=0;" edge="1" parent="1" source="8pidxWECpLZkylS-_Fdc-23" target="8pidxWECpLZkylS-_Fdc-26">
          <mxGeometry width="50" height="50" relative="1" as="geometry">
            <mxPoint x="70" y="80" as="sourcePoint" />
            <mxPoint x="120" y="30" as="targetPoint" />
          </mxGeometry>
        </mxCell>
        <mxCell id="8pidxWECpLZkylS-_Fdc-28" style="rounded=0;orthogonalLoop=1;jettySize=auto;html=1;entryX=1;entryY=0.5;entryDx=0;entryDy=0;fontSize=12;startSize=8;endSize=8;exitX=0.5;exitY=1;exitDx=0;exitDy=0;" edge="1" parent="1" source="8pidxWECpLZkylS-_Fdc-26" target="8pidxWECpLZkylS-_Fdc-27">
          <mxGeometry relative="1" as="geometry">
            <Array as="points">
              <mxPoint x="298" y="80" />
            </Array>
          </mxGeometry>
        </mxCell>
        <mxCell id="8pidxWECpLZkylS-_Fdc-26" value="Create Account" style="rounded=1;whiteSpace=wrap;html=1;fontSize=16;" vertex="1" parent="1">
          <mxGeometry x="250" y="20" width="95" height="40" as="geometry" />
        </mxCell>
        <mxCell id="8pidxWECpLZkylS-_Fdc-27" value="Login" style="rounded=1;whiteSpace=wrap;html=1;fontSize=16;" vertex="1" parent="1">
          <mxGeometry x="-45" y="70" width="80" height="20" as="geometry" />
        </mxCell>
        <mxCell id="8pidxWECpLZkylS-_Fdc-29" value="Authentication" style="rounded=1;whiteSpace=wrap;html=1;fontSize=16;" vertex="1" parent="1">
          <mxGeometry x="241.25" y="100" width="112.5" height="20" as="geometry" />
        </mxCell>
        <mxCell id="8pidxWECpLZkylS-_Fdc-30" value="" style="endArrow=classic;html=1;rounded=0;fontSize=12;startSize=8;endSize=8;exitX=0.5;exitY=1;exitDx=0;exitDy=0;entryX=0;entryY=0.5;entryDx=0;entryDy=0;" edge="1" parent="1" source="8pidxWECpLZkylS-_Fdc-27" target="8pidxWECpLZkylS-_Fdc-29">
          <mxGeometry width="50" height="50" relative="1" as="geometry">
            <mxPoint x="70" y="160" as="sourcePoint" />
            <mxPoint x="120" y="110" as="targetPoint" />
            <Array as="points">
              <mxPoint x="-5" y="110" />
            </Array>
          </mxGeometry>
        </mxCell>
        <mxCell id="8pidxWECpLZkylS-_Fdc-31" value="Send Data" style="rounded=1;whiteSpace=wrap;html=1;fontSize=16;" vertex="1" parent="1">
          <mxGeometry x="241.25" y="140" width="112.5" height="20" as="geometry" />
        </mxCell>
        <mxCell id="8pidxWECpLZkylS-_Fdc-32" value="" style="endArrow=classic;html=1;rounded=0;fontSize=12;startSize=8;endSize=8;curved=1;exitX=0.5;exitY=1;exitDx=0;exitDy=0;entryX=0.5;entryY=0;entryDx=0;entryDy=0;" edge="1" parent="1" source="8pidxWECpLZkylS-_Fdc-29" target="8pidxWECpLZkylS-_Fdc-31">
          <mxGeometry width="50" height="50" relative="1" as="geometry">
            <mxPoint x="280" y="220" as="sourcePoint" />
            <mxPoint x="330" y="170" as="targetPoint" />
          </mxGeometry>
        </mxCell>
        <mxCell id="8pidxWECpLZkylS-_Fdc-33" value="Navigate to App" style="rounded=1;whiteSpace=wrap;html=1;fontSize=16;" vertex="1" parent="1">
          <mxGeometry x="-50" y="140" width="120" height="20" as="geometry" />
        </mxCell>
        <mxCell id="8pidxWECpLZkylS-_Fdc-34" value="" style="endArrow=classic;html=1;rounded=0;fontSize=12;startSize=8;endSize=8;curved=1;exitX=0;exitY=0.5;exitDx=0;exitDy=0;entryX=1;entryY=0.5;entryDx=0;entryDy=0;" edge="1" parent="1" source="8pidxWECpLZkylS-_Fdc-31" target="8pidxWECpLZkylS-_Fdc-33">
          <mxGeometry width="50" height="50" relative="1" as="geometry">
            <mxPoint x="110" y="220" as="sourcePoint" />
            <mxPoint x="160" y="170" as="targetPoint" />
          </mxGeometry>
        </mxCell>
        <mxCell id="8pidxWECpLZkylS-_Fdc-35" value="View Products" style="rounded=1;whiteSpace=wrap;html=1;fontSize=16;" vertex="1" parent="1">
          <mxGeometry x="-50" y="190" width="120" height="20" as="geometry" />
        </mxCell>
        <mxCell id="8pidxWECpLZkylS-_Fdc-36" value="" style="endArrow=classic;html=1;rounded=0;fontSize=12;startSize=8;endSize=8;curved=1;exitX=0.5;exitY=1;exitDx=0;exitDy=0;entryX=0.5;entryY=0;entryDx=0;entryDy=0;" edge="1" parent="1" source="8pidxWECpLZkylS-_Fdc-33" target="8pidxWECpLZkylS-_Fdc-35">
          <mxGeometry width="50" height="50" relative="1" as="geometry">
            <mxPoint x="-30" y="290" as="sourcePoint" />
            <mxPoint x="20" y="240" as="targetPoint" />
          </mxGeometry>
        </mxCell>
        <mxCell id="8pidxWECpLZkylS-_Fdc-37" value="All Products" style="rounded=1;whiteSpace=wrap;html=1;fontSize=16;" vertex="1" parent="1">
          <mxGeometry x="-84" y="291" width="100" height="24" as="geometry" />
        </mxCell>
        <mxCell id="8pidxWECpLZkylS-_Fdc-38" value="Seasonal products" style="rounded=1;whiteSpace=wrap;html=1;fontSize=16;" vertex="1" parent="1">
          <mxGeometry x="20" y="291" width="125" height="44" as="geometry" />
        </mxCell>
        <mxCell id="8pidxWECpLZkylS-_Fdc-39" value="" style="endArrow=classic;html=1;rounded=0;fontSize=12;startSize=8;endSize=8;curved=1;exitX=0.5;exitY=1;exitDx=0;exitDy=0;" edge="1" parent="1" source="8pidxWECpLZkylS-_Fdc-35">
          <mxGeometry width="50" height="50" relative="1" as="geometry">
            <mxPoint x="30" y="270" as="sourcePoint" />
            <mxPoint x="10" y="250" as="targetPoint" />
          </mxGeometry>
        </mxCell>
        <mxCell id="8pidxWECpLZkylS-_Fdc-41" value="" style="line;strokeWidth=4;fillColor=none;align=left;verticalAlign=middle;spacingTop=-1;spacingLeft=3;spacingRight=3;rotatable=0;labelPosition=right;points=[];portConstraint=eastwest;strokeColor=inherit;fontSize=16;" vertex="1" parent="1">
          <mxGeometry x="-50" y="250" width="150" height="8" as="geometry" />
        </mxCell>
        <mxCell id="8pidxWECpLZkylS-_Fdc-44" value="" style="endArrow=classic;html=1;rounded=0;fontSize=12;startSize=8;endSize=8;curved=1;exitX=0.996;exitY=0.717;exitDx=0;exitDy=0;exitPerimeter=0;strokeWidth=1;" edge="1" parent="1">
          <mxGeometry width="50" height="50" relative="1" as="geometry">
            <mxPoint x="98.68000000000009" y="251.736" as="sourcePoint" />
            <mxPoint x="99" y="290" as="targetPoint" />
          </mxGeometry>
        </mxCell>
        <mxCell id="8pidxWECpLZkylS-_Fdc-45" value="" style="endArrow=classic;html=1;rounded=0;fontSize=12;startSize=8;endSize=8;curved=1;exitX=0.996;exitY=0.717;exitDx=0;exitDy=0;exitPerimeter=0;strokeWidth=1;" edge="1" parent="1">
          <mxGeometry width="50" height="50" relative="1" as="geometry">
            <mxPoint x="-47.6399999999999" y="251.736" as="sourcePoint" />
            <mxPoint x="-47" y="290" as="targetPoint" />
          </mxGeometry>
        </mxCell>
        <mxCell id="8pidxWECpLZkylS-_Fdc-46" value="" style="endArrow=classic;html=1;rounded=0;fontSize=12;startSize=8;endSize=8;curved=1;exitX=0.996;exitY=0.717;exitDx=0;exitDy=0;exitPerimeter=0;strokeWidth=1;" edge="1" parent="1">
          <mxGeometry width="50" height="50" relative="1" as="geometry">
            <mxPoint x="-44.9999999999999" y="314.996" as="sourcePoint" />
            <mxPoint x="-44" y="365" as="targetPoint" />
          </mxGeometry>
        </mxCell>
        <mxCell id="8pidxWECpLZkylS-_Fdc-47" value="" style="endArrow=classic;html=1;rounded=0;fontSize=12;startSize=8;endSize=8;curved=1;exitX=0.996;exitY=0.717;exitDx=0;exitDy=0;exitPerimeter=0;strokeWidth=1;" edge="1" parent="1">
          <mxGeometry width="50" height="50" relative="1" as="geometry">
            <mxPoint x="82.18000000000009" y="334.996" as="sourcePoint" />
            <mxPoint x="83" y="365" as="targetPoint" />
          </mxGeometry>
        </mxCell>
        <mxCell id="8pidxWECpLZkylS-_Fdc-49" value="" style="line;strokeWidth=4;fillColor=none;align=left;verticalAlign=middle;spacingTop=-1;spacingLeft=3;spacingRight=3;rotatable=0;labelPosition=right;points=[];portConstraint=eastwest;strokeColor=inherit;fontSize=16;" vertex="1" parent="1">
          <mxGeometry x="-56" y="363" width="150" height="8" as="geometry" />
        </mxCell>
        <mxCell id="8pidxWECpLZkylS-_Fdc-50" value="" style="endArrow=classic;html=1;rounded=0;fontSize=12;startSize=8;endSize=8;curved=1;exitX=0.469;exitY=0.599;exitDx=0;exitDy=0;exitPerimeter=0;" edge="1" parent="1" source="8pidxWECpLZkylS-_Fdc-49">
          <mxGeometry width="50" height="50" relative="1" as="geometry">
            <mxPoint x="-20" y="460" as="sourcePoint" />
            <mxPoint x="16" y="400" as="targetPoint" />
          </mxGeometry>
        </mxCell>
        <mxCell id="8pidxWECpLZkylS-_Fdc-53" value="Buy Products" style="rounded=1;whiteSpace=wrap;html=1;fontSize=16;" vertex="1" parent="1">
          <mxGeometry x="-34" y="400" width="104" height="30" as="geometry" />
        </mxCell>
        <mxCell id="8pidxWECpLZkylS-_Fdc-54" value="Ask for Payment" style="rounded=1;whiteSpace=wrap;html=1;fontSize=16;" vertex="1" parent="1">
          <mxGeometry x="233" y="395" width="107" height="40" as="geometry" />
        </mxCell>
        <mxCell id="8pidxWECpLZkylS-_Fdc-55" value="" style="endArrow=classic;html=1;rounded=0;fontSize=12;startSize=8;endSize=8;curved=1;exitX=1;exitY=0.5;exitDx=0;exitDy=0;entryX=0;entryY=0.5;entryDx=0;entryDy=0;" edge="1" parent="1" source="8pidxWECpLZkylS-_Fdc-53" target="8pidxWECpLZkylS-_Fdc-54">
          <mxGeometry width="50" height="50" relative="1" as="geometry">
            <mxPoint x="130" y="450" as="sourcePoint" />
            <mxPoint x="180" y="400" as="targetPoint" />
          </mxGeometry>
        </mxCell>
        <mxCell id="8pidxWECpLZkylS-_Fdc-56" value="" style="endArrow=classic;html=1;rounded=0;fontSize=12;startSize=8;endSize=8;entryX=1;entryY=0.5;entryDx=0;entryDy=0;exitX=0.5;exitY=1;exitDx=0;exitDy=0;" edge="1" parent="1">
          <mxGeometry width="50" height="50" relative="1" as="geometry">
            <mxPoint x="285.5" y="435" as="sourcePoint" />
            <mxPoint x="69" y="460" as="targetPoint" />
            <Array as="points">
              <mxPoint x="286" y="460" />
            </Array>
          </mxGeometry>
        </mxCell>
        <mxCell id="8pidxWECpLZkylS-_Fdc-57" value="Pay" style="rounded=1;whiteSpace=wrap;html=1;fontSize=16;" vertex="1" parent="1">
          <mxGeometry x="-34" y="445" width="104" height="30" as="geometry" />
        </mxCell>
        <mxCell id="8pidxWECpLZkylS-_Fdc-58" value="" style="ellipse;html=1;shape=endState;fillColor=#000000;strokeColor=#ff0000;fontSize=16;" vertex="1" parent="1">
          <mxGeometry x="3" y="500" width="30" height="30" as="geometry" />
        </mxCell>
        <mxCell id="8pidxWECpLZkylS-_Fdc-59" value="" style="endArrow=classic;html=1;rounded=0;fontSize=12;startSize=8;endSize=8;curved=1;exitX=0.5;exitY=1;exitDx=0;exitDy=0;entryX=0.5;entryY=0;entryDx=0;entryDy=0;" edge="1" parent="1" source="8pidxWECpLZkylS-_Fdc-57" target="8pidxWECpLZkylS-_Fdc-58">
          <mxGeometry width="50" height="50" relative="1" as="geometry">
            <mxPoint x="40" y="540" as="sourcePoint" />
            <mxPoint x="90" y="490" as="targetPoint" />
          </mxGeometry>
        </mxCell>
      </root>
    </mxGraphModel>
  </diagram>
</mxfile>
